<svg xmlns="http://www.w3.org/2000/svg" viewBox="0 0 64 64" role="img" aria-labelledby="title desc">
  <title id="title">django_sp_admin favicon</title>
  <desc id="desc">Minimal SP monogram favicon for django_sp_admin.</desc>
  <defs>
    <style>
      .bg { fill: #092e20; }
      .accent { fill: #44b78b; }
      .soft { fill: #cfeee2; }
    </style>
  </defs>

  <rect width="64" height="64" rx="12" class="bg"/>
  <rect x="6" y="6" width="52" height="52" rx="9" fill="none" stroke="#44b78b" stroke-width="1.75" stroke-dasharray="3 3" opacity="0.65"/>

  <path d="M16 18h21c6 0 11 5 11 11s-5 11-11 11H25v10H16z" class="soft"/>
  <rect x="25" y="27" width="10" height="5" class="bg"/>
  <rect x="33" y="40" width="5" height="5" class="bg"/>

  <path d="M38 40c6 0 10 4 10 9 0 8-6 13-14 13-5 0-10-2-14-5l4-8c3 3 6 4 10 4 3 0 5-1 5-3s-2-3-5-3h-6v-7z" class="accent" transform="translate(0,-7)"/>
  <circle cx="50" cy="15" r="2.2" class="accent"/>
</svg>
